<svg width="374" height="374" viewBox="0 0 374 374" fill="none" xmlns="http://www.w3.org/2000/svg">
<path d="M157.777 354.347L156.616 358.832L156.895 359.1C156.833 359.237 156.771 359.374 156.696 359.511C156.079 360.742 155.374 361.936 154.585 363.086C153.542 364.616 152.375 366.091 151.165 367.538C150.5 368.339 149.817 369.134 149.134 369.923C149.116 369.95 149.095 369.976 149.072 370C149.08 369.972 149.09 369.944 149.103 369.918L148.88 369.874L147.595 364.95L147.204 365.729V365.734L146.57 367.023C146.62 367.259 146.67 367.489 146.732 367.719C146.725 367.714 146.725 367.703 146.719 367.697C146.713 367.692 146.713 367.692 146.713 367.686C146.632 367.533 146.545 367.385 146.465 367.231L145.496 369.194L143.534 368.799C142.504 368.328 141.473 367.851 140.449 367.357C126.455 360.652 113.498 352.093 104.775 340.442C101.308 335.801 98.6868 330.708 97.0082 325.348C93.6991 314.701 94.2703 303.242 100.292 293.729C100.292 293.728 100.293 293.728 100.293 293.727C100.293 293.726 100.294 293.726 100.294 293.725C100.295 293.725 100.296 293.724 100.296 293.724C100.297 293.724 100.298 293.724 100.299 293.724C100.448 293.482 100.603 293.241 100.764 293C100.882 293.274 100.994 293.548 101.118 293.822V293.828C102.737 297.551 104.69 301.154 106.96 304.602C107.134 304.87 107.308 305.139 107.494 305.402C113.039 313.622 120.264 320.861 128.802 326.752C128.825 326.772 128.85 326.79 128.876 326.807C128.906 326.829 128.937 326.849 128.969 326.867C130.869 328.183 132.833 329.42 134.861 330.579V330.584C136.444 331.495 138.071 332.355 139.722 333.172C143.243 334.905 147.073 336.572 150.364 338.65C153.561 340.662 156.255 343.058 157.69 346.265C157.801 346.523 157.907 346.78 158 347.038L155.442 354.007L157.777 354.347Z" fill="#F0F0F0"/>
<path d="M147 365.694V365.699L146.379 367C145.442 362.262 146.556 357.253 145.783 352.455C145.697 351.918 145.588 351.381 145.448 350.85C144.656 347.817 142.848 344.977 139.634 343.621C138.696 343.233 137.712 342.945 136.7 342.763C134.704 342.376 132.622 342.293 130.607 342.077C130.102 342.022 129.602 341.961 129.115 341.878C126.51 341.511 124.022 340.637 121.823 339.315C119.13 337.575 116.783 335.43 114.883 332.972C113.628 331.43 112.46 329.83 111.383 328.179C111.237 327.969 111.103 327.753 110.963 327.537C108.444 323.57 106.377 319.379 104.796 315.029C103.982 312.806 103.299 310.544 102.751 308.254C101.531 303.251 100.945 298.136 101.004 293.012C101.004 293.011 101.004 293.01 101.004 293.01C101.005 293.009 101.005 293.008 101.006 293.008C101.006 293.007 101.007 293.007 101.008 293.007C101.009 293.006 101.009 293.006 101.01 293.006C101.004 292.774 101.01 292.541 101.016 292.309C101.028 291.833 101.838 291.938 101.826 292.414C101.82 292.646 101.814 292.873 101.814 293.106V293.111C101.764 298.021 102.309 302.921 103.439 307.723C103.5 307.967 103.561 308.21 103.616 308.454C105.261 315.107 108.027 321.49 111.815 327.377C111.858 327.443 111.9 327.51 111.949 327.576C112.832 328.943 113.781 330.271 114.78 331.572C116.614 334.076 118.869 336.302 121.464 338.17C123.647 339.654 126.182 340.653 128.866 341.086C129.134 341.131 129.402 341.175 129.675 341.214C129.889 341.247 130.108 341.275 130.327 341.297C132.378 341.529 134.484 341.618 136.524 341.972C137.451 342.131 138.361 342.363 139.245 342.664C140.691 343.191 141.998 343.99 143.081 345.008C144.164 346.027 144.997 347.243 145.527 348.575C146.07 349.868 146.441 351.215 146.635 352.588C146.702 353.036 146.75 353.484 146.793 353.938V353.944C146.854 354.674 146.884 355.41 146.896 356.146C146.909 357.065 146.89 357.984 146.866 358.897C146.731 361.163 146.776 363.434 147 365.694Z" fill="white"/>
<path d="M111.771 328.076C109.473 328.991 106.834 329.236 104.326 328.767C101.818 328.298 99.6048 327.145 98.0811 325.515C97.7742 325.184 98.4154 324.795 98.7226 325.126C100.138 326.646 102.2 327.72 104.536 328.153C106.873 328.586 109.329 328.35 111.464 327.488C111.928 327.301 112.233 327.89 111.771 328.076H111.771Z" fill="white"/>
<path d="M128.164 341.485C130.672 336.904 130.276 331.91 127.057 327.501C126.737 327.064 127.857 326.782 128.177 327.218C131.513 331.811 131.907 337.008 129.281 341.772C129.03 342.226 127.914 341.936 128.164 341.485H128.164Z" fill="white"/>
<path d="M102.286 308.384C103.409 308.173 104.438 307.771 105.282 307.215C106.126 306.659 106.758 305.966 107.121 305.198C107.305 304.804 108.158 305.055 107.974 305.447C107.567 306.293 106.868 307.058 105.938 307.674C105.008 308.29 103.875 308.738 102.638 308.979C102.524 309.009 102.398 309.007 102.286 308.974C102.174 308.942 102.084 308.881 102.034 308.804C101.988 308.725 101.989 308.636 102.036 308.558C102.083 308.479 102.173 308.417 102.286 308.384H102.286Z" fill="white"/>
<path d="M167 336L166.149 338.679L160.923 337.798L159.191 342.603L158.893 343.429L157.708 346.714L155.204 353.661L157.489 354L156.353 358.472L156.626 358.74L156.711 358.822L157.276 359.379L160.716 362.757L151.309 370L149.802 369.688L149.03 369.53C149.012 369.557 148.991 369.582 148.969 369.606C148.976 369.578 148.987 369.551 148.999 369.524L148.781 369.481L147.523 364.572L147.14 365.348V365.354L146.52 366.638C146.568 366.873 146.617 367.103 146.678 367.332C146.672 367.327 146.672 367.316 146.666 367.311C146.66 367.305 146.66 367.305 146.66 367.3C146.581 367.147 146.496 366.999 146.417 366.846C145.213 364.588 144.065 362.298 143.001 359.98C140.38 354.399 138.324 348.616 136.857 342.702C136.796 342.445 136.73 342.188 136.681 341.925V341.92C135.789 338.096 135.247 334.213 135.058 330.31V330.304C134.961 328.167 134.985 326.027 135.131 323.892C135.516 318.375 136.863 312.946 139.124 307.805C139.136 307.778 139.148 307.756 139.16 307.729C143.493 297.922 151.12 289.417 161.488 284.886C161.919 284.689 162.363 284.503 162.807 284.328H162.819L162.825 284.323C163.105 284.213 163.378 284.109 163.658 284C163.566 284.284 163.469 284.568 163.384 284.858C162.158 288.678 161.28 292.581 160.759 296.529V296.534C160.71 296.835 160.668 297.146 160.631 297.452V297.458C159.485 306.98 160.313 316.61 163.074 325.86C163.08 325.888 163.092 325.909 163.098 325.937C164.13 329.371 165.433 332.734 167 336Z" fill="#F0F0F0"/>
<path d="M157 359.564C156.538 360.151 156.064 360.721 155.584 361.291C155.121 361.839 154.659 362.386 154.197 362.94C152.988 364.348 151.909 365.851 150.972 367.433C150.502 368.254 150.111 369.113 149.802 370L149.059 369.84C149.041 369.867 149.021 369.893 149 369.917C149.007 369.889 149.017 369.861 149.029 369.834C150.393 365.806 153.495 362.685 156.187 359.332C156.28 359.221 156.368 359.111 156.456 359L157 359.564Z" fill="white"/>
<path d="M164.897 284.65C164.725 284.831 164.546 285.017 164.38 285.204C163.089 286.592 161.868 288.025 160.718 289.501C158.67 292.105 156.851 294.828 155.275 297.649C155.149 297.869 155.023 298.094 154.904 298.319C151.531 304.483 149.333 311.043 148.388 317.765C148.375 317.831 148.368 317.892 148.361 317.957C148.143 319.527 148.002 321.102 147.937 322.682C147.726 325.658 148.082 328.643 148.99 331.527C149.123 331.906 149.269 332.279 149.427 332.641C149.826 333.529 150.325 334.383 150.917 335.193C151.343 335.784 151.817 336.35 152.335 336.889C152.646 337.218 152.97 337.542 153.315 337.854C153.513 338.035 153.719 338.216 153.924 338.398C154.096 338.535 154.262 338.677 154.434 338.815C156.222 340.252 158.195 341.586 159.811 343.171L159.487 344C157.93 342.365 155.924 341.009 154.116 339.583C152.981 338.698 151.948 337.729 151.03 336.686C150.911 336.543 150.785 336.4 150.672 336.252C150.059 335.509 149.529 334.721 149.09 333.898C148.865 333.486 148.659 333.064 148.474 332.625C147.392 329.788 146.899 326.819 147.017 323.845C147.038 321.94 147.175 320.038 147.428 318.144C147.454 317.897 147.487 317.656 147.527 317.409C148.198 312.902 149.423 308.463 151.182 304.163C153.409 298.706 156.471 293.509 160.294 288.699C161.387 287.322 162.546 285.978 163.771 284.666C163.93 284.485 164.096 284.31 164.268 284.129C164.619 283.755 165.248 284.277 164.897 284.65Z" fill="white"/>
<path d="M148.522 317.993C146.109 317.552 143.927 316.243 142.367 314.3C140.806 312.357 139.967 309.907 140.001 307.387C140.003 307.285 140.044 307.187 140.115 307.115C140.186 307.042 140.282 307.001 140.382 307C140.482 306.999 140.578 307.037 140.651 307.108C140.724 307.178 140.767 307.275 140.772 307.378C140.736 309.724 141.517 312.006 142.975 313.812C144.432 315.618 146.469 316.829 148.718 317.227C149.207 317.314 149.008 318.08 148.522 317.993Z" fill="white"/>
<path d="M153.191 337.324C157.736 334.714 160.942 330.762 162.168 326.258C162.289 325.811 163.109 325.992 162.988 326.438C161.701 331.124 158.356 335.231 153.619 337.938C153.167 338.196 152.742 337.581 153.191 337.324H153.191Z" fill="white"/>
<path d="M154.587 296.735C155.684 297.117 156.873 297.256 158.048 297.141C159.222 297.025 160.346 296.658 161.317 296.073C161.813 295.772 162.284 296.479 161.791 296.778C160.715 297.42 159.474 297.824 158.176 297.954C156.879 298.084 155.564 297.937 154.348 297.524C154.229 297.494 154.129 297.425 154.066 297.332C154.004 297.24 153.985 297.13 154.012 297.026C154.044 296.921 154.123 296.832 154.23 296.778C154.338 296.723 154.466 296.708 154.587 296.735Z" fill="white"/>
<path d="M275.673 9.91359C265.5 30.2181 262.76 52.865 267.841 74.6376C268.961 79.2962 270.552 83.935 273.251 88.0739C275.916 92.0902 279.738 95.3968 284.321 97.65C288.547 99.8275 293.152 101.618 296.71 104.674C300.461 107.895 302.131 112.291 301.992 116.883C301.822 122.503 299.397 127.732 296.827 132.773C293.974 138.37 290.91 144.143 291.096 150.435C291.118 151.197 289.79 151.184 289.768 150.422C289.446 139.475 298.321 130.683 300.298 120.179C301.221 115.277 300.493 110.098 296.629 106.298C293.25 102.976 288.503 101.125 284.203 98.9536C279.688 96.6732 275.844 93.8558 272.987 89.9499C270.065 85.9545 268.267 81.3613 267.018 76.7487C264.273 66.2702 263.393 55.4719 264.409 44.7494C265.493 32.5063 268.917 20.5186 274.534 9.30524C274.882 8.61133 276.019 9.22421 275.673 9.91359H275.673Z" fill="white"/>
<path d="M265.364 67.9606C261.203 68.2261 257.074 67.1422 253.714 64.9025C250.354 62.6628 247.981 59.4132 247.02 55.7339C246.828 54.9889 248.096 54.6838 248.288 55.4298C249.176 58.8575 251.387 61.8843 254.521 63.9641C257.654 66.0439 261.505 67.0397 265.377 66.7716C266.219 66.7143 266.2 67.9036 265.364 67.9606Z" fill="white"/>
<path d="M282.175 96.9437C287.83 91.0594 290.866 83.43 290.68 75.5769C290.661 74.7989 291.974 74.8124 291.993 75.5895C292.171 83.762 288.993 91.6956 283.093 97.8071C282.531 98.3892 281.615 97.5227 282.175 96.9437V96.9437Z" fill="white"/>
<path d="M373.634 1.17265C351.83 11.9323 334.373 28.5583 323.744 48.6893C321.497 53.0145 319.638 57.5769 318.999 62.3348C318.416 66.9769 319.235 71.6737 321.37 75.9373C323.272 79.9485 325.737 83.8546 326.514 88.209C327.334 92.7987 325.702 97.2094 322.494 100.805C318.569 105.204 313.109 108.081 307.661 110.728C301.611 113.667 295.275 116.634 291.18 121.762C290.684 122.384 289.634 121.659 290.13 121.039C297.255 112.117 310.261 109.86 318.921 102.528C322.962 99.1067 325.874 94.5763 325.354 89.4632C324.9 84.9921 322.362 80.9621 320.397 76.9156C318.334 72.6667 317.168 68.3494 317.524 63.6925C317.887 58.9287 319.551 54.2918 321.665 49.9342C326.541 40.0848 333.121 30.9819 341.161 22.959C350.281 13.757 361.095 6.01708 373.135 0.0740761C373.881 -0.293487 374.374 0.807472 373.634 1.17263V1.17265Z" fill="white"/>
<path d="M320.531 73.8585C328.716 72.384 335.973 68.2309 340.855 62.2272C341.339 61.632 342.356 62.3276 341.873 62.922C336.78 69.1611 329.218 73.4695 320.696 74.9873C319.884 75.1315 319.723 74.0019 320.531 73.8585H320.531Z" fill="white"/>
<path d="M360.841 213.805L337.155 100.778C336.75 98.9144 335.647 97.2291 334.026 95.9982C332.405 94.7673 330.363 94.0637 328.234 94.0028C328.043 93.9991 327.851 93.9991 327.66 94.0028L311.524 94.5187L309.788 94.5756L301.735 94.8335L299.998 94.8866L294.819 95.0536L190.371 98.3954C190.213 98.403 190.052 98.403 189.894 98.3992L166.489 97.963L157.828 97.8037L157.551 97.7999L151.158 97.6785L95.4526 96.6467L80.6835 96.3698L73.4011 96.2371L71.6561 96.2029L63.3522 96.0512L61.6114 96.0171L53.1159 95.8615L51.3751 95.8274L42.0412 95.6529L40.5771 95.6263L32.2519 95.4708L30.9367 95.4481H30.7452C28.5351 95.4561 26.3992 96.1602 24.7153 97.4361C23.0314 98.7119 21.9079 100.477 21.5433 102.42L0.121642 219.707C-0.0958966 220.895 -0.021014 222.111 0.341103 223.271C0.70322 224.431 1.3439 225.506 2.21879 226.424C3.09367 227.341 4.18184 228.078 5.4079 228.583C6.63395 229.088 7.96858 229.35 9.31934 229.349H132.341C134.152 229.354 135.914 229.872 137.372 230.829L139.705 232.369C141.312 233.423 143.254 233.995 145.25 234H217.751C218.976 234.003 220.19 233.789 221.321 233.371C222.453 232.953 223.48 232.339 224.344 231.565C225.821 230.249 227.792 229.467 229.877 229.368L352.167 223.625C353.493 223.564 354.789 223.25 355.968 222.706C357.147 222.161 358.182 221.398 359.003 220.468C359.825 219.539 360.414 218.463 360.731 217.314C361.048 216.164 361.085 214.968 360.841 213.805V213.805Z" fill="#CCCCCC"/>
<path d="M340.953 211.143L327.763 93.9629C327.759 93.9133 327.751 93.8599 327.742 93.8104C327.495 91.9381 326.465 90.2197 324.859 89.0024L296.487 67.8069C295.253 66.8781 293.719 66.3288 292.111 66.2398C279.13 65.4924 213.137 62.7243 188.778 81.6856C188.039 82.2623 187.168 82.6869 186.226 82.9293C185.285 83.1717 184.295 83.2261 183.327 83.0887C182.357 82.9476 181.433 82.6204 180.617 82.1295C179.801 81.6386 179.113 80.9956 178.599 80.2443C176.528 77.3493 173.814 74.8678 170.627 72.9542C169.196 72.0631 167.705 71.252 166.163 70.5254C164.798 69.881 163.314 69.2557 161.698 68.6533C160.308 68.1347 158.824 67.6353 157.234 67.1586C148.989 64.6879 137.968 62.8425 123.24 62.2248C117.13 61.9656 110.489 61.9313 103.503 62.1181C97.1251 62.2859 90.3476 62.6328 83.3618 63.1514L83.2597 63.1552L35.9917 89.0329C34.932 89.6253 34.0365 90.4261 33.3728 91.3747C32.7091 92.3233 32.2947 93.3948 32.1608 94.5081L32.063 95.2859L17.0539 215.547C16.9243 216.568 17.029 217.603 17.3617 218.587C17.6944 219.572 18.248 220.484 18.9885 221.27C19.7093 222.035 20.6069 222.651 21.6193 223.075C22.6316 223.499 23.7346 223.721 24.8518 223.725H141.319C142.867 223.732 144.368 224.209 145.575 225.079L150.66 228.731C151.985 229.686 153.626 230.219 155.325 230.249L206.534 231H206.657C207.951 230.998 209.222 230.701 210.352 230.138L220.229 225.22C221.13 224.77 222.134 224.509 223.163 224.457L333.542 219.23C334.617 219.178 335.669 218.924 336.628 218.484C337.587 218.044 338.432 217.428 339.107 216.675C339.809 215.909 340.334 215.025 340.651 214.076C340.968 213.126 341.07 212.129 340.953 211.143Z" fill="#E6E6E6"/>
<path d="M302.96 189.475L301.41 171.204L294.869 94.1646L293.897 82.7678C293.651 79.7744 292.169 76.9702 289.739 74.9019C287.309 72.8336 284.106 71.6495 280.754 71.5804C256.789 71.0296 213.392 71.9991 192.096 84.7729C189.728 86.2143 186.855 86.8358 184.012 86.5217C181.17 86.2075 178.552 84.9791 176.646 83.0653C173.699 80.1693 170.162 77.8042 166.223 76.0973C163.341 74.8032 160.344 73.7236 157.264 72.8694C148.25 70.2915 136.875 68.7253 123.14 68.1708L90.5415 68H90.4862C88.228 68.0019 86.0553 68.7733 84.4095 70.1576C82.7638 71.5419 81.7685 73.4352 81.6259 75.4528L80.2107 95.4866L74.027 183.345C73.9113 184.981 74.1684 186.622 74.7825 188.167C75.3967 189.712 76.3552 191.129 77.5999 192.333C78.8445 193.536 80.3493 194.5 82.0229 195.167C83.6965 195.834 85.5041 196.19 87.3358 196.212C142.054 196.939 165.958 207.278 176.382 215.816C178.598 217.636 181.429 218.743 184.427 218.96C187.425 219.178 190.418 218.494 192.933 217.017C211.853 205.923 243.307 202.839 268.344 202.359C276.01 202.216 283.074 202.31 288.993 202.497C290.896 202.558 292.791 202.259 294.555 201.62C296.32 200.98 297.913 200.014 299.232 198.784C300.55 197.555 301.564 196.091 302.207 194.486C302.849 192.882 303.106 191.175 302.96 189.475Z" fill="white"/>
<path d="M1.01603 232C0.99224 232 0.967461 231.999 0.943637 231.997C0.810665 231.989 0.680825 231.956 0.56156 231.902C0.442296 231.848 0.335928 231.773 0.248535 231.681C0.161141 231.589 0.0944466 231.483 0.0522348 231.368C0.0100231 231.252 -0.00687377 231.131 0.00252529 231.01L10.9725 89.8607C10.9803 89.739 11.0147 89.62 11.0738 89.5106C11.1328 89.4013 11.2152 89.3038 11.3162 89.2239C11.4172 89.144 11.5347 89.0833 11.6618 89.0454C11.7889 89.0074 11.9231 88.9931 12.0564 89.0031C12.1894 89.0116 12.3192 89.0439 12.4384 89.0982C12.5577 89.1524 12.6641 89.2276 12.7515 89.3193C12.8389 89.411 12.9056 89.5175 12.9478 89.6327C12.99 89.748 13.0069 89.8696 12.9975 89.9908L2.02755 231.14C2.00968 231.373 1.89537 231.592 1.70766 231.751C1.51995 231.911 1.2728 232 1.01603 232Z" fill="white"/>
<path d="M14.016 227C13.9922 227 13.9674 226.999 13.9436 226.997C13.8106 226.989 13.6808 226.956 13.5616 226.902C13.4423 226.848 13.3359 226.773 13.2485 226.681C13.1611 226.589 13.0944 226.483 13.0522 226.368C13.01 226.252 12.9931 226.131 13.0025 226.01L23.9725 84.8607C23.9803 84.739 24.0147 84.62 24.0738 84.5106C24.1328 84.4013 24.2152 84.3038 24.3162 84.2239C24.4172 84.144 24.5347 84.0833 24.6618 84.0454C24.7889 84.0074 24.9231 83.9931 25.0564 84.0031C25.1893 84.0116 25.3192 84.0439 25.4384 84.0982C25.5577 84.1524 25.6641 84.2276 25.7515 84.3193C25.8389 84.411 25.9056 84.5175 25.9478 84.6328C25.99 84.748 26.0069 84.8696 25.9975 84.9908L15.0276 226.14C15.0097 226.373 14.8954 226.592 14.7077 226.751C14.5199 226.911 14.2728 227 14.016 227Z" fill="white"/>
<path d="M53.8597 208C53.8396 208 53.8186 207.999 53.7984 207.998C53.6859 207.991 53.5761 207.963 53.4752 207.918C53.3743 207.872 53.2842 207.809 53.2103 207.732C53.1364 207.655 53.0799 207.566 53.0442 207.469C53.0085 207.373 52.9942 207.271 53.0021 207.169L62.2844 88.7223C62.291 88.6202 62.3201 88.5203 62.3701 88.4285C62.42 88.3367 62.4898 88.2549 62.5753 88.1879C62.6607 88.1208 62.7601 88.0699 62.8677 88.0381C62.9752 88.0062 63.0888 87.9942 63.2015 88.0026C63.3141 88.0098 63.4239 88.0369 63.5248 88.0824C63.6257 88.1279 63.7157 88.191 63.7897 88.2679C63.8636 88.3449 63.9201 88.4343 63.9558 88.531C63.9915 88.6277 64.0058 88.7298 63.9979 88.8314L54.7156 207.278C54.7005 207.474 54.6038 207.657 54.4449 207.791C54.2861 207.925 54.077 208 53.8597 208Z" fill="white"/>
<path d="M63.8597 203C63.8396 203 63.8186 202.999 63.7985 202.998C63.6859 202.991 63.5761 202.963 63.4752 202.918C63.3742 202.872 63.2842 202.809 63.2103 202.732C63.1363 202.655 63.0799 202.566 63.0442 202.469C63.0085 202.373 62.9942 202.271 63.0021 202.169L72.2844 83.7223C72.291 83.6202 72.3202 83.5203 72.3701 83.4285C72.4201 83.3367 72.4898 83.2549 72.5753 83.1879C72.6607 83.1208 72.7602 83.0699 72.8677 83.0381C72.9753 83.0062 73.0888 82.9942 73.2016 83.0026C73.3141 83.0098 73.4239 83.0369 73.5248 83.0824C73.6257 83.1279 73.7158 83.191 73.7897 83.2679C73.8636 83.3449 73.9201 83.4343 73.9558 83.531C73.9915 83.6277 74.0058 83.7298 73.9979 83.8315L64.7156 202.278C64.7005 202.474 64.6038 202.657 64.445 202.791C64.2861 202.925 64.077 203 63.8597 203Z" fill="white"/>
<path d="M340.984 160C341.008 160 341.033 159.999 341.056 159.997C341.189 159.989 341.319 159.956 341.438 159.902C341.558 159.848 341.664 159.773 341.751 159.681C341.839 159.589 341.906 159.483 341.948 159.368C341.99 159.252 342.007 159.131 341.997 159.01L331.028 17.8607C331.02 17.739 330.985 17.62 330.926 17.5106C330.867 17.4013 330.785 17.3038 330.684 17.2239C330.583 17.144 330.465 17.0833 330.338 17.0454C330.211 17.0074 330.077 16.9931 329.944 17.0031C329.811 17.0116 329.681 17.0439 329.562 17.0982C329.442 17.1524 329.336 17.2276 329.249 17.3193C329.161 17.411 329.094 17.5175 329.052 17.6327C329.01 17.748 328.993 17.8696 329.003 17.9908L339.972 159.14C339.99 159.373 340.105 159.592 340.292 159.751C340.48 159.911 340.727 160 340.984 160Z" fill="white"/>
<path d="M326.984 152C327.008 152 327.033 151.999 327.056 151.997C327.189 151.989 327.319 151.956 327.438 151.902C327.558 151.848 327.664 151.773 327.751 151.681C327.839 151.589 327.906 151.483 327.948 151.368C327.99 151.252 328.007 151.131 327.997 151.01L317.028 9.86068C317.02 9.73901 316.985 9.62 316.926 9.51064C316.867 9.40128 316.785 9.30376 316.684 9.22386C316.583 9.14396 316.465 9.08328 316.338 9.04536C316.211 9.00745 316.077 8.99307 315.944 9.00309C315.811 9.01162 315.681 9.04392 315.562 9.09818C315.442 9.15243 315.336 9.22758 315.249 9.3193C315.161 9.41102 315.094 9.51752 315.052 9.63274C315.01 9.74796 314.993 9.86963 315.003 9.99079L325.973 151.14C325.99 151.373 326.105 151.592 326.292 151.751C326.48 151.911 326.727 152 326.984 152Z" fill="white"/>
<path d="M314.984 143C315.008 143 315.033 142.999 315.056 142.997C315.189 142.989 315.319 142.956 315.438 142.902C315.558 142.848 315.664 142.773 315.751 142.681C315.839 142.589 315.906 142.483 315.948 142.368C315.99 142.252 316.007 142.131 315.997 142.01L305.028 0.860681C305.02 0.739015 304.985 0.620001 304.926 0.510641C304.867 0.40128 304.785 0.303784 304.684 0.223881C304.583 0.143978 304.465 0.0832762 304.338 0.0453619C304.211 0.00744754 304.077 -0.00692598 303.944 0.00309463C303.811 0.0116189 303.681 0.0439417 303.562 0.098196C303.442 0.15245 303.336 0.22758 303.249 0.319302C303.161 0.411023 303.094 0.517539 303.052 0.632757C303.01 0.747976 302.993 0.869645 303.003 0.990813L313.972 142.14C313.99 142.373 314.105 142.592 314.292 142.751C314.48 142.911 314.727 143 314.984 143Z" fill="white"/>
<path d="M107.603 137.714C127.24 132.108 149.148 133.592 167.751 141.491C173.059 143.733 178.073 146.496 182.698 149.73C184.007 150.649 185.869 149.005 184.546 148.076C167.459 136.215 145.99 130.581 124.452 132.305C118.493 132.782 112.611 133.84 106.908 135.459C105.312 135.915 105.994 138.174 107.603 137.714H107.603Z" fill="#3F3D56"/>
<path d="M215.968 150.633C234.175 141.987 255.977 140.101 275.773 145.009C281.417 146.405 286.871 148.364 292.035 150.851C293.514 151.564 294.832 149.532 293.35 148.817C274.483 139.722 251.835 137.628 231.232 142.698C225.485 144.115 219.925 146.094 214.652 148.599C213.167 149.305 214.483 151.338 215.968 150.633Z" fill="#3F3D56"/>
<path d="M215.968 165.633C234.175 156.987 255.977 155.101 275.773 160.009C281.417 161.405 286.871 163.364 292.035 165.851C293.514 166.564 294.832 164.532 293.35 163.817C274.483 154.722 251.835 152.628 231.232 157.698C225.485 159.115 219.925 161.094 214.652 163.599C213.167 164.305 214.483 166.338 215.968 165.633V165.633Z" fill="#3F3D56"/>
<path d="M281.991 138.869C282.005 138.665 281.951 138.462 281.836 138.286C281.722 138.111 281.552 137.971 281.349 137.884C266.232 130.675 249.092 127.751 232.135 129.488C232.029 129.496 231.931 129.512 231.816 129.519H231.812C231.707 129.528 231.604 129.542 231.501 129.562C221.415 130.619 211.631 133.366 202.642 137.664C202.446 137.77 202.284 137.921 202.171 138.101C202.059 138.282 202 138.486 202 138.694V168.222C202.003 168.404 202.052 168.583 202.142 168.745C202.232 168.907 202.362 169.048 202.521 169.158C202.68 169.267 202.864 169.343 203.06 169.378C203.256 169.413 203.458 169.408 203.651 169.361C204.05 169.257 204.45 169.156 204.859 169.059C213.946 166.819 223.275 165.49 232.679 165.095C232.879 165.088 233.079 165.08 233.288 165.072C240.948 164.773 248.621 165.024 256.238 165.824C256.397 165.832 256.556 165.848 256.714 165.87C257.106 165.909 257.505 165.952 257.897 165.998C258.054 166.014 258.203 166.029 258.348 166.052C259.871 166.227 261.381 166.424 262.895 166.637C265.082 166.955 267.268 167.309 269.455 167.699C269.591 167.722 269.731 167.753 269.872 167.777C273.381 168.412 276.874 169.148 280.349 169.962C280.543 170.007 280.745 170.012 280.941 169.976C281.137 169.94 281.321 169.864 281.48 169.753C281.639 169.643 281.768 169.501 281.858 169.339C281.948 169.176 281.997 168.997 282 168.815V138.915C282.001 138.899 281.998 138.883 281.991 138.869Z" fill="#3F3D56"/>
<path d="M233.587 131.379C232.67 130.973 231.618 130.89 230.637 131.145C230.203 131.292 229.806 131.515 229.469 131.802C229.132 132.089 228.861 132.433 228.672 132.815C228.332 133.548 228.114 134.322 228.026 135.112C227.974 135.423 227.97 135.815 228.316 135.96C228.442 136.001 228.577 136.011 228.708 135.987C228.839 135.964 228.961 135.909 229.059 135.827C229.238 135.668 229.385 135.483 229.494 135.279C230.095 134.435 230.921 133.741 231.896 133.261C232.872 132.782 233.965 132.533 235.076 132.536L236 132.869C235.273 132.277 234.461 131.776 233.587 131.379Z" fill="#FF6582"/>
<path d="M244.247 137.569C243.481 136.539 242.573 135.44 241.151 135.104C239.504 134.715 237.813 135.488 236.378 136.251C232.111 138.519 227.979 140.991 224 143.659L224.004 143.699L233.241 143.181C235.465 143.057 237.766 142.915 239.732 142.06C240.438 141.656 241.227 141.388 242.05 141.272C242.561 141.298 243.062 141.415 243.522 141.618C243.983 141.82 244.396 142.104 244.736 142.453C248.993 146.135 250.224 151.765 255 155C251.961 148.923 248.364 143.092 244.247 137.569Z" fill="white"/>
<path d="M233 164.97C232.792 164.98 232.592 164.99 232.392 165C230.941 164.397 229.456 163.865 227.953 163.402C226.98 163.101 225.99 162.83 224.999 162.598C223.878 162.317 222.749 162.096 221.62 161.905C219.47 161.543 217.303 161.332 215.131 161.272C215.114 161.274 215.098 161.272 215.082 161.266C215.066 161.26 215.051 161.251 215.039 161.238C215.027 161.225 215.017 161.21 215.01 161.192C215.004 161.175 215 161.156 215 161.136C215 161.117 215.004 161.098 215.01 161.081C215.017 161.063 215.027 161.048 215.039 161.035C215.051 161.022 215.066 161.012 215.082 161.007C215.098 161.001 215.114 160.999 215.131 161.001C215.408 161.001 215.687 161.011 215.956 161.031C218.133 161.124 220.303 161.369 222.454 161.764C223.575 161.975 224.695 162.227 225.807 162.508C226.815 162.769 227.822 163.061 228.813 163.382C230.229 163.844 231.625 164.374 233 164.97Z" fill="white"/>
<path d="M259 165C258.851 164.978 258.702 164.964 258.544 164.95C257.938 164.539 257.324 164.149 256.684 163.767C255.885 163.291 255.06 162.844 254.218 162.426C252.353 161.496 250.405 160.681 248.392 159.989C245.209 158.9 241.914 158.046 238.547 157.437C234.706 156.746 230.818 156.245 226.904 155.937C222.99 155.606 219.059 155.404 215.128 155.202C214.962 155.195 214.953 154.993 215.128 155C215.62 155.029 216.111 155.051 216.611 155.079C220.586 155.281 224.561 155.512 228.509 155.88C232.424 156.225 236.308 156.779 240.135 157.538C243.403 158.2 246.592 159.1 249.664 160.227C251.431 160.88 253.143 161.629 254.788 162.469C255.832 163.01 256.842 163.587 257.807 164.2C258.21 164.459 258.614 164.719 259 165Z" fill="white"/>
<path d="M257 165C256.839 164.977 256.677 164.961 256.514 164.953C256.329 164.819 256.135 164.693 255.941 164.567C254.582 163.7 253.164 162.909 251.695 162.199C250.361 161.553 248.991 160.967 247.59 160.445C244.389 159.253 241.074 158.32 237.686 157.659C233.822 156.905 229.91 156.358 225.972 156.023C222.035 155.661 218.08 155.441 214.126 155.221C213.958 155.205 213.958 154.992 214.126 155C214.629 155.032 215.123 155.055 215.618 155.087C219.616 155.307 223.615 155.559 227.587 155.96C231.526 156.336 235.433 156.941 239.284 157.77C242.571 158.49 245.779 159.472 248.87 160.704C250.035 161.176 251.174 161.688 252.286 162.246C253.935 163.053 255.512 163.974 257 165Z" fill="white"/>
<path d="M270 167C269.861 166.976 269.722 166.944 269.583 166.92C269.426 166.769 269.278 166.609 269.131 166.449C268.383 165.659 267.644 164.861 266.914 164.055C264.036 160.911 261.307 157.671 258.733 154.368C256.525 151.543 254.43 148.662 252.448 145.726C251.5 144.337 250.588 142.933 249.692 141.512C248.997 140.411 248.319 139.307 247.658 138.201C247.467 137.881 247.284 137.562 247.102 137.243C246.676 136.493 246.25 135.735 245.798 134.993C245.306 134.084 244.585 133.295 243.694 132.695C243.249 132.421 242.733 132.259 242.199 132.224C241.445 132.226 240.704 132.402 240.043 132.734C235.179 134.813 230.591 137.397 226.368 140.435C222.244 143.38 218.514 146.763 215.258 150.514C215.154 150.625 214.927 150.522 215.023 150.402C215.414 149.955 215.814 149.508 216.214 149.069C219.344 145.671 222.868 142.597 226.724 139.9C226.733 139.892 226.75 139.884 226.759 139.876C227.098 139.629 227.437 139.39 227.785 139.158C229.938 137.703 232.179 136.36 234.496 135.136C235.679 134.506 236.887 133.907 238.121 133.341C238.426 133.197 238.739 133.054 239.051 132.918C239.365 132.774 239.678 132.639 239.99 132.503C240.61 132.213 241.287 132.042 241.981 132C244.398 131.968 245.641 134.203 246.502 135.711C246.771 136.182 247.05 136.653 247.319 137.123C248.362 138.903 249.449 140.674 250.579 142.422C251.266 143.507 251.979 144.585 252.7 145.654C253.735 147.178 254.795 148.686 255.899 150.186C255.899 150.188 255.9 150.189 255.9 150.19C255.9 150.191 255.901 150.191 255.902 150.192C255.903 150.193 255.904 150.194 255.905 150.194C255.906 150.194 255.907 150.194 255.908 150.194C257.186 151.966 258.516 153.706 259.89 155.437C262.246 158.398 264.715 161.292 267.297 164.119C268.183 165.093 269.084 166.053 270 167Z" fill="white"/>
<path d="M283 128.578V129C281.985 127.935 280.949 126.879 279.923 125.823C279.492 125.382 279.062 124.941 278.631 124.5C276.805 122.645 274.969 120.796 273.123 118.954C271.267 117.117 269.411 115.28 267.534 113.453C267.082 113.012 266.631 112.571 266.17 112.131C265.8 111.76 265.399 111.416 264.97 111.102C264.536 110.779 264.039 110.533 263.503 110.376C262.886 110.223 262.236 110.217 261.616 110.358C260.908 110.505 260.231 110.735 259.544 110.927C258.836 111.139 258.139 111.341 257.431 111.543C256.016 111.956 254.611 112.369 253.195 112.783C253.178 112.789 253.159 112.792 253.14 112.792C253.122 112.791 253.103 112.788 253.086 112.781C253.069 112.774 253.053 112.764 253.04 112.752C253.027 112.739 253.017 112.725 253.011 112.709C253.003 112.692 252.999 112.673 253 112.654C253.001 112.635 253.007 112.617 253.017 112.6C253.026 112.584 253.04 112.569 253.057 112.558C253.074 112.546 253.093 112.538 253.114 112.535C253.462 112.434 253.821 112.333 254.18 112.231C255.606 111.809 257.021 111.396 258.447 110.983C259.154 110.771 259.862 110.569 260.57 110.367C261.226 110.144 261.919 110.02 262.621 110C263.767 110.074 264.841 110.525 265.636 111.267C266.077 111.635 266.477 112.02 266.877 112.415C267.349 112.874 267.821 113.334 268.293 113.793C270.19 115.648 272.074 117.509 273.944 119.376C275.821 121.249 277.68 123.126 279.523 125.005C279.656 125.143 279.79 125.281 279.923 125.419C280.959 126.465 281.974 127.522 283 128.578Z" fill="white"/>
<path d="M239 132.245L238.756 132.347C238.196 131.449 237.412 130.696 236.473 130.155C235.534 129.615 234.468 129.303 233.372 129.248C229.757 129.004 226.582 131.294 226.293 134.353C226.176 135.613 226.559 136.869 227.368 137.873L227.141 138C226.299 136.954 225.9 135.647 226.022 134.335C226.322 131.15 229.629 128.764 233.394 129.019C234.535 129.076 235.645 129.4 236.623 129.963C237.601 130.526 238.417 131.31 239 132.245Z" fill="#FF6582"/>
<path d="M221.163 138.37C220.178 138.088 219.105 137.964 218.034 138.009C216.962 138.054 215.922 138.267 215 138.629C218.367 138.97 221.705 139.428 225 140C223.636 139.531 222.569 138.795 221.163 138.37Z" fill="white"/>
<path d="M277.004 154.989C276.63 154.544 276.132 154.202 275.563 154L275 154.018C279.417 160.368 285.204 165.809 292 170C287.001 164.996 282.003 159.993 277.004 154.989Z" fill="white"/>
<path d="M225.774 139.851C225.633 139.751 225.493 139.65 225.351 139.549C224.264 138.696 222.955 138.006 221.499 137.517C220.757 137.292 219.962 137.173 219.157 137.169C218.326 137.183 217.504 137.298 216.725 137.509C216.359 137.603 216.001 137.709 215.649 137.823C215.246 137.953 214.85 138.091 214.456 138.231C213.717 138.494 212.987 138.768 212.267 139.053C210.834 139.622 209.446 140.233 208.103 140.888C207.407 141.228 206.725 141.579 206.057 141.941C205.436 142.277 204.828 142.622 204.232 142.976C204.105 143.052 203.915 142.93 204.042 142.854C204.199 142.76 204.358 142.667 204.517 142.575C204.965 142.315 205.421 142.06 205.884 141.809C206.728 141.352 207.595 140.913 208.483 140.491C209.863 139.835 211.292 139.223 212.768 138.656C213.505 138.372 214.253 138.101 215.011 137.842C215.24 137.763 215.471 137.687 215.705 137.614C216.24 137.441 216.792 137.297 217.356 137.183C218.166 137.016 219.012 136.962 219.85 137.026C220.652 137.1 221.43 137.272 222.15 137.537C223.578 138.113 224.866 138.854 225.964 139.729C226.079 139.812 225.89 139.934 225.774 139.851Z" fill="white"/>
<path d="M107.603 153.714C127.24 148.108 149.148 149.592 167.751 157.491C173.059 159.733 178.073 162.496 182.698 165.73C184.007 166.649 185.869 165.005 184.546 164.076C167.459 152.215 145.99 146.581 124.452 148.305C118.493 148.782 112.611 149.84 106.908 151.459C105.312 151.915 105.994 154.174 107.603 153.714H107.603Z" fill="#3F3D56"/>
<path d="M95.6032 126.714C115.24 121.108 137.148 122.592 155.751 130.491C161.059 132.733 166.073 135.496 170.698 138.73C172.007 139.649 173.869 138.005 172.546 137.076C155.459 125.215 133.99 119.581 112.452 121.305C106.493 121.782 100.611 122.84 94.9084 124.459C93.3121 124.915 93.9944 127.174 95.6032 126.714H95.6032Z" fill="#3F3D56"/>
<path d="M95.6032 142.714C115.24 137.108 137.148 138.592 155.751 146.491C161.059 148.733 166.073 151.496 170.698 154.73C172.007 155.649 173.869 154.005 172.546 153.076C155.459 141.215 133.99 135.581 112.452 137.305C106.493 137.782 100.611 138.84 94.9084 140.459C93.3121 140.915 93.9944 143.174 95.6032 142.714H95.6032Z" fill="#3F3D56"/>
<path d="M95.6032 157.714C115.24 152.108 137.148 153.592 155.751 161.491C161.059 163.733 166.073 166.496 170.698 169.73C172.007 170.649 173.869 169.005 172.546 168.076C155.459 156.215 133.99 150.581 112.452 152.305C106.493 152.782 100.611 153.84 94.9084 155.459C93.3121 155.915 93.9944 158.174 95.6032 157.714H95.6032Z" fill="#3F3D56"/>
<path d="M95.6032 173.397C115.24 168.102 137.148 169.504 155.751 176.964C161.059 179.081 166.073 181.691 170.698 184.745C172.007 185.613 173.869 184.06 172.546 183.183C155.459 171.981 133.99 166.66 112.452 168.288C106.493 168.739 100.611 169.737 94.9084 171.267C93.3121 171.697 93.9944 173.831 95.6032 173.397L95.6032 173.397Z" fill="#3F3D56"/>
<path d="M179 111.463V156.375C179 157.14 177.381 157.779 175.195 157.951C174.814 157.983 174.414 157.999 174 157.999C172.797 158.017 171.6 157.857 170.467 157.524C170.257 157.457 170.053 157.377 169.857 157.285C169.314 157.022 169 156.712 169 156.375V108C170.781 108.49 172.443 109.004 174 109.538C175.81 110.157 177.471 110.801 179 111.463Z" fill="#275CAB"/>
<path d="M185 85H184V227H185V85Z" fill="#E6E6E6"/>
<path d="M303.556 170.576C301.996 172.036 300.112 173.184 298.026 173.945C295.941 174.706 293.7 175.062 291.45 174.991C284.456 174.769 276.11 174.658 267.051 174.828L267 174.788L306.26 129L307.954 159.528C308.124 161.544 307.82 163.57 307.062 165.473C306.304 167.377 305.11 169.115 303.556 170.576Z" fill="#F2F2F2"/>
<path d="M217 334L215.287 346.58L213.978 356.142L213.454 360H206.006V356.572L206 345.23V334H217Z" fill="#FFB6B6"/>
<path d="M164 331.897L161.66 337.838L159.782 342.603L159.459 343.421L158.174 346.679L155.458 353.569L154.107 357L146.6 355.807L146 355.715L146.488 353.645L146.784 352.382L150.067 338.386L150.601 336.131L150.686 335.768L150.93 334.721L152.037 330L160.039 331.268L160.962 331.415L164 331.897Z" fill="#FFB6B6"/>
<path d="M227.743 256.791C223.395 278.481 222.308 287.846 222.308 287.846C222.308 287.846 225.569 291.296 223.395 293.269C221.222 295.243 223.395 299.184 223.395 299.184L218.507 347L214.573 346.421L205.094 345.038L201.675 344.536L203.849 299.68C203.849 299.68 201.675 295.733 202.762 294.747C203.849 293.76 201.675 287.846 201.675 287.846L198.961 241.016L182.123 292.283C182.123 292.283 183.757 294.256 182.123 295.733C180.496 297.21 177.241 304.607 177.241 304.607L167.228 336.411L166.378 339.112L161.156 338.225L155.473 337.255L154.428 337.078L152.57 336.759L151.374 336.555L150.967 336.489L149 336.152L149.595 333.755L149.905 332.493L158.375 298.34L158.57 297.552L158.776 296.72C158.776 296.72 157.689 294.256 159.316 292.773C159.793 292.321 160.14 291.771 160.33 291.17C160.519 290.569 160.544 289.935 160.403 289.323C160.35 289.271 160.301 289.216 160.258 289.157C160.065 288.918 159.933 288.643 159.869 288.353C159.723 287.735 159.851 286.87 160.95 285.872C161.259 285.574 161.519 285.236 161.721 284.869C163.373 282.03 164.205 276.017 164.205 276.017C164.205 276.017 165.674 228.388 170.483 221.112C170.673 220.795 170.941 220.521 171.266 220.313C176.695 217.359 228.824 220.313 228.824 220.313C228.824 220.313 228.897 220.655 229.012 221.305C229.638 224.96 231.429 238.392 227.743 256.791Z" fill="#2F2E41"/>
<path d="M227 169.364L228.527 161L256.654 165.303L296.56 167.898C297.426 167.027 298.578 166.434 299.845 166.207C301.111 165.979 302.425 166.13 303.59 166.636C304.756 167.142 305.71 167.976 306.311 169.015C306.912 170.054 307.128 171.242 306.927 172.401C306.725 173.561 306.117 174.63 305.193 175.45C304.269 176.27 303.079 176.797 301.799 176.952C300.519 177.107 299.218 176.883 298.09 176.312C296.962 175.74 296.067 174.853 295.538 173.782L271.063 175.279L227 169.364Z" fill="#FFB6B6"/>
<path d="M206 164.303L207.972 156.827C207.972 156.827 218.681 155.02 227.148 156.749L259 162.352L256.422 180L206 164.303Z" fill="#275CAB"/>
<path d="M130.723 225.268L148.616 189.972L161.675 165L173 171.052L137.744 229.152C138.054 230.188 138.018 231.284 137.642 232.301C137.266 233.319 136.566 234.212 135.63 234.868C134.695 235.524 133.566 235.914 132.387 235.987C131.207 236.061 130.031 235.815 129.005 235.282C127.979 234.748 127.151 233.95 126.625 232.989C126.099 232.028 125.898 230.947 126.049 229.882C126.199 228.818 126.694 227.818 127.47 227.009C128.247 226.199 129.27 225.617 130.411 225.336C130.514 225.311 130.618 225.288 130.723 225.267L130.723 225.268Z" fill="#FFB6B6"/>
<path d="M182 153.654L173.398 150.017C173.398 150.017 171.873 149.53 168.584 153.726C165.294 157.922 137 197.517 137 197.517L154.967 205L182 153.654Z" fill="#275CAB"/>
<path d="M226.572 367.729L214.868 360.631V356L213.201 356.088L204.774 356.53L202.553 356.646L201.019 372.774L201 373H206.528L206.579 372.774L207.516 368.419L209.912 372.774L210.038 373H224.704C225.145 372.999 225.581 372.922 225.987 372.774C226.532 372.572 227.004 372.246 227.355 371.829C227.706 371.411 227.923 370.919 227.983 370.403C228.043 369.888 227.943 369.367 227.695 368.897C227.447 368.426 227.059 368.023 226.572 367.729H226.572Z" fill="#2F2E41"/>
<path d="M166.168 368.236L161.281 363.438L157.871 360.084L157.311 359.53L157.226 359.448L156.955 359.183L158.082 354.742L155.816 354.406L147.887 353.217L147.459 353.157L146.616 353.027L146.423 353L143.717 360.681L141.265 367.623L141 368.383L144.26 369.051L146.164 369.441L147.104 367.498L147.206 367.292L147.821 366.016V366.011L148.2 365.24L149.448 370.115L149.665 370.158L149.695 370.163L150.46 370.321L151.954 370.63L162.402 372.78L163.143 372.932C163.96 373.095 164.815 372.962 165.522 372.56C166.23 372.159 166.733 371.522 166.921 370.788C167.035 370.339 167.025 369.873 166.894 369.428C166.763 368.984 166.514 368.575 166.168 368.236Z" fill="#2F2E41"/>
<path d="M215.734 131.672C214.45 133.711 212.666 135.483 210.508 136.864C208.351 138.246 205.87 139.204 203.24 139.671C202.948 139.726 202.656 139.77 202.357 139.808C198.231 140.366 194.007 139.7 190.374 137.918C186.741 136.136 183.912 133.343 182.347 129.994C180.782 126.644 180.574 122.936 181.757 119.471C182.939 116.007 185.442 112.99 188.858 110.912C192.275 108.834 196.404 107.817 200.573 108.027C204.743 108.237 208.708 109.66 211.823 112.067C214.938 114.473 217.02 117.72 217.731 121.28C218.441 124.839 217.737 128.502 215.734 131.672Z" fill="#FFB6B6"/>
<path d="M208.117 109.984C202.23 106.432 197.047 105.89 192.789 106.898C192.237 106.149 191.463 105.546 190.55 105.153C187.229 97.8094 177.123 93.3991 168.45 95.543C159.721 97.7008 153.698 106.187 155.341 114.014C156.359 118.866 159.838 123.067 161.237 127.846C163.946 137.095 157.338 147.69 147 150.672C156.788 152.397 167.562 147.15 171.074 138.948C172.779 134.964 172.882 130.614 173.099 126.363C173.156 123.428 173.565 120.507 174.321 117.648C174.696 116.365 175.226 115.121 175.901 113.937C177.373 111.335 179.817 109.254 182.826 108.041C182.556 108.773 182.489 109.55 182.629 110.308C182.769 111.067 183.113 111.786 183.632 112.405C181.337 114.928 180.087 117.658 180.087 119.292C175.319 126.941 182.138 133.511 190.853 137.696C194.329 139.374 198.343 139.988 202.261 139.442L202.626 138.075L203.12 139.306L204.769 143.431C206.671 144.239 208.557 145.124 210.427 146.088C209.717 143.16 209.142 140.238 208.747 137.382C208.199 133.493 210.107 127.705 211.484 124.184C212.337 122.015 212.775 119.736 212.78 117.441V117.341L214.12 121.119L219 119.292C218.092 114.722 219 109.535 208.117 109.984Z" fill="#2F2E41"/>
<path d="M169.138 216.209C169.785 213.926 169.785 211.535 169.138 209.252C168.024 205.774 170.252 204.283 170.252 204.283L170.808 150.615C173.161 148.516 179.464 148.482 182.99 148.645V146.281C182.99 145.411 183.377 144.576 184.066 143.961C184.756 143.346 185.691 143 186.666 143H202.972C203.947 143 204.882 143.346 205.572 143.961C206.261 144.576 206.649 145.411 206.649 146.281V149.114L211.431 149.182C219.759 149.735 227.046 157.075 227.046 157.075L219.807 181.921C219.807 181.921 222.034 202.295 224.818 204.78C227.602 207.265 226.489 208.755 226.489 208.755C226.489 208.755 224.818 214.222 228.159 216.209C231.5 218.197 229.273 221.675 229.273 221.675C229.273 221.675 169.138 222.669 167.468 221.179C165.797 219.688 169.138 216.209 169.138 216.209Z" fill="#275CAB"/>
<path d="M279 373C279 373.131 278.982 373.262 278.945 373.383C278.909 373.505 278.855 373.615 278.787 373.708C278.72 373.801 278.639 373.875 278.551 373.925C278.462 373.975 278.367 374 278.272 374H106.728C106.535 374 106.35 373.895 106.213 373.707C106.077 373.52 106 373.265 106 373C106 372.735 106.077 372.48 106.213 372.293C106.35 372.105 106.535 372 106.728 372H278.272C278.367 372 278.462 372.025 278.551 372.075C278.639 372.125 278.72 372.199 278.787 372.292C278.855 372.385 278.909 372.495 278.945 372.617C278.982 372.738 279 372.869 279 373Z" fill="#CCCCCC"/>
<path d="M351.066 15.1245C352.256 16.1951 353.721 16.9808 355.33 17.4111C356.938 17.8413 358.639 17.9027 360.279 17.5896C361.12 17.4268 361.286 18.6275 360.451 18.7893C358.636 19.1275 356.758 19.0577 354.98 18.5859C353.202 18.1141 351.579 17.2547 350.251 16.0827C350.116 15.9818 350.028 15.8379 350.006 15.6803C349.983 15.5227 350.028 15.3633 350.13 15.2344C350.239 15.108 350.398 15.0256 350.573 15.005C350.748 14.9845 350.925 15.0274 351.066 15.1245V15.1245Z" fill="white"/>
<path d="M326.934 41.8993C323.468 39.8636 320.915 36.7796 319.731 33.198C318.547 29.6164 318.808 25.7705 320.468 22.3471C320.807 21.6554 322.01 22.0989 321.671 22.7915C320.119 25.9768 319.876 29.5593 320.986 32.8924C322.097 36.2256 324.487 39.0897 327.727 40.968C328.43 41.377 327.633 42.3059 326.934 41.8993H326.934Z" fill="white"/>
<path d="M266.688 33.5808C268.385 33.806 270.112 33.6164 271.714 33.0291C273.317 32.4418 274.745 31.4751 275.87 30.2159C276.446 29.5685 277.395 30.5226 276.824 31.1658C275.574 32.5514 273.995 33.6171 272.226 34.2698C270.456 34.9225 268.55 35.1424 266.674 34.9103C266.495 34.9028 266.326 34.8293 266.201 34.7045C266.076 34.5798 266.004 34.4131 266 34.2386C266.003 34.0625 266.077 33.8947 266.205 33.7715C266.334 33.6484 266.508 33.5798 266.688 33.5808V33.5808Z" fill="white"/>
</svg>
